# xmcd
#
# Track frame offsets: 
#        150
#        21201
#        36375
#        52750
#        70763
#        86152
#
# Disc length: 1332 seconds
#
# Revision: 0
# Processed by: cddbd v1.5.2PL0 Copyright (c) Steve Scherf et al.
# Submitted via: ExactAudioCopy v0.99pb4
#
DISCID=47053206
DTITLE=devils and gods - Albert Frost
DYEAR=1900
DGENRE=2009
TTITLE0=go again
TTITLE1=devils and gods
TTITLE2=only us
TTITLE3=spoonful
TTITLE4=son of the sun
TTITLE5=television
EXTD=
EXTT0=
EXTT1=
EXTT2=
EXTT3=
EXTT4=
EXTT5=
PLAYORDER=
